<svg width="230" height="60" viewBox="0 0 230 60" fill="none" xmlns="http://www.w3.org/2000/svg">
<g clip-path="url(#clip0_300_137)">
<path d="M35.1579 11.387C35.2553 11.0248 35.3239 10.826 35.3616 10.6217C36.2266 5.93274 42.0767 2.37892 46.2027 2.50316C46.8753 2.52342 47.56 2.47324 48.2177 2.58327C50.0638 2.89182 51.5737 3.75693 52.8213 5.21201C54.7882 7.50589 55.6969 10.2146 56.2714 13.0945C56.7399 15.443 56.469 17.7851 56.2594 20.1331C56.1438 21.4286 56.0385 22.7347 56.0745 24.032C56.1929 28.3125 55.7799 32.553 54.6097 36.648C53.7241 39.7469 52.5082 42.7678 50.4078 45.3422C49.5399 46.406 48.4902 46.9995 47.1967 47.116C43.0003 47.4941 38.7826 47.7999 34.6148 46.9843C32.1456 46.5011 29.7518 45.6452 27.2997 45.0587C23.8311 44.2291 20.8577 42.4202 17.919 40.5193C17.1472 40.02 16.5656 39.3364 16.3418 38.4553C16.0221 37.196 15.7185 35.9187 15.5825 34.6306C15.4465 33.343 15.5401 32.032 15.4994 30.7324C15.4894 30.4118 15.3472 30.0958 15.2683 29.7771C15.0476 28.8868 14.8089 28.0001 14.6134 27.1043C14.3995 26.1241 14.3384 25.096 14.0118 24.1581C13.2892 22.0834 13.3337 20.0245 13.8851 17.9486C14.34 16.2359 15.2239 14.7957 16.6208 13.6582C19.4434 11.3594 22.4935 9.54734 26.203 9.20956C27.189 9.11979 28.2371 9.1829 29.1943 9.4238C30.8599 9.84285 32.4778 10.4522 34.1136 10.9881C34.4262 11.0902 34.7294 11.2221 35.1579 11.387ZM37.4662 34.4302C37.3304 35.1548 37.114 35.7208 37.1449 36.2728C37.2013 37.2746 37.3778 38.273 37.5572 39.2632C37.6688 39.8789 37.8078 40.5079 38.0581 41.0764C38.5277 42.143 39.9306 43.0222 40.8955 42.839C42.088 42.6127 42.3901 41.5941 42.6439 40.6007C42.8521 39.7862 42.9528 38.9417 43.1971 38.1398C43.424 37.395 43.5734 36.5021 44.5407 36.3212C45.4412 36.1529 45.9084 36.831 46.3639 37.4397C46.7308 37.9301 47.1491 38.1524 47.7766 37.9811C48.3704 37.8189 48.7856 37.4928 48.8209 36.8762C48.9002 35.4915 49.6761 34.4336 50.4081 33.3598C51.4089 31.892 52.3674 30.3891 52.8508 28.6752C53.5574 26.1702 54.258 23.6527 54.7381 21.0985C55.0853 19.2509 55.2787 17.3217 55.1574 15.4538C55.0391 13.6329 54.4751 11.8335 54.031 10.0433C53.5718 8.19227 52.452 6.69015 51.1411 5.3749C50.5447 4.77666 49.7128 4.31407 48.903 4.04755C47.0007 3.42171 45.0662 3.65318 43.1963 4.27087C39.6462 5.44348 37.2184 7.75948 36.1503 11.3985C36.0275 11.8169 35.953 12.2493 35.8597 12.6589C35.6596 12.6589 35.5633 12.6873 35.4969 12.6549C33.3303 11.5922 31.054 10.8409 28.6752 10.4814C27.6552 10.3272 26.5678 10.329 25.5505 10.4978C22.2394 11.0472 19.4929 12.7775 17.1129 15.0358C15.0264 17.0157 14.4923 19.6564 14.9803 22.3696C15.3283 24.3045 15.905 26.1968 16.0885 28.1762C16.1561 28.9049 16.4038 29.6981 17.2061 30.0487C17.702 28.7277 18.1583 27.5123 18.6146 26.2968C18.6021 27.6721 17.8636 28.8538 17.8071 30.2786C18.6733 30.3372 19.1544 29.9538 19.4478 29.2959C19.6357 28.8748 19.7682 28.4291 19.9379 27.9993C19.9562 27.953 20.0562 27.9388 20.178 27.8817C20.1301 28.271 20.0866 28.6255 20.0526 28.9025C20.6708 29.1061 21.2114 29.2843 21.7992 29.4778C21.8643 29.3742 21.9414 29.2301 22.0395 29.1022C22.1086 29.0123 22.2061 28.9443 22.291 28.8665C21.9421 29.9264 22.0726 30.8208 22.7296 31.7317C23.0779 31.0989 23.3907 30.5306 23.7036 29.9622C23.6605 30.7324 23.4246 31.4001 23.1622 32.0572C22.894 32.7283 23.0941 33.1776 23.762 33.4963C24.1804 32.4834 24.5804 31.5153 24.9803 30.547C25.0588 30.5754 25.1373 30.6037 25.2157 30.632C24.9456 31.5657 24.6754 32.4994 24.3899 33.4863C25.7475 33.2785 26.0148 32.2092 26.4223 31.5007C27.104 31.4161 27.7156 31.1786 28.2223 31.3192C28.8245 31.4863 29.3365 31.9785 29.72 32.2229C30.0191 33.6451 29.8816 34.94 30.4201 36.2518C31.0952 35.2447 31.2772 34.1153 32.3155 33.4887C31.8003 34.6583 31.2854 35.828 30.7527 37.0377C30.948 37.2441 31.1409 37.4477 31.3832 37.7038C31.8777 36.5953 32.3371 35.5655 32.7966 34.5357C32.8859 34.5716 32.9751 34.6074 33.0644 34.6433C32.6911 35.6841 32.3178 36.725 31.892 37.9123C32.8877 37.7986 33.3486 37.322 33.685 36.6667C34.1261 35.8073 34.5704 34.9496 35.021 34.0952C35.0433 34.0531 35.1385 34.0494 35.2711 34.0027C35.2181 34.312 35.1729 34.5752 35.1398 34.7679C35.7053 34.9252 36.2147 35.067 36.7843 35.2254C36.9532 35.0281 37.1682 34.7776 37.4662 34.4302ZM48.0419 46.1511C48.4028 44.8716 48.197 43.5567 48.2195 42.2701C46.6364 42.2701 45.2137 42.2701 43.7125 42.2701C43.5861 42.4444 43.4239 42.6871 43.2428 42.9145C42.2828 44.1194 41.2111 44.5069 39.7902 43.9465C38.9918 43.6317 38.2494 43.1029 37.5847 42.5475C37.1602 42.1928 36.8315 41.8951 36.2232 41.8158C34.4786 41.5884 32.7314 41.3348 31.1626 40.399C30.6787 40.1103 30.055 39.9803 29.482 39.9305C27.7215 39.7771 26.1097 39.2567 24.6473 38.2564C24.3037 38.0213 23.921 37.8043 23.5243 37.6928C22.1336 37.3022 20.7289 36.9613 19.2112 36.571C19.0235 37.5218 18.8245 38.53 18.6204 39.5645C19.0527 39.8168 19.4017 40.0206 19.8141 40.2613C20.0903 39.3746 20.339 38.5763 20.6486 37.5826C20.7537 37.8697 20.7852 37.9108 20.7788 37.9449C20.6865 38.4406 20.587 38.9348 20.4936 39.4303C20.2627 40.6555 20.2812 40.6945 21.4146 41.2805C21.5228 41.3364 21.6498 41.3556 21.8431 41.4148C21.9639 40.9092 22.059 40.4176 22.2021 39.9404C22.3339 39.5005 22.5172 39.076 22.6779 38.6447C22.7363 38.6639 22.7946 38.6831 22.853 38.7023C22.6532 39.7138 22.4536 40.7254 22.2518 41.747C22.9172 42.1013 23.4608 42.3909 24.0365 42.6973C24.1766 42.0779 24.2711 41.5827 24.4033 41.0976C24.5296 40.6344 24.6952 40.182 24.8434 39.7247C24.9243 39.7497 25.0052 39.7746 25.0861 39.7996C24.9447 40.614 24.7838 41.4255 24.6673 42.2435C24.5606 42.9933 24.5817 42.9963 25.561 43.108C26.0296 42.2285 26.1242 41.1587 27.0049 40.4564C26.7141 41.4369 26.4235 42.4175 26.1159 43.4553C26.7267 43.6389 27.1971 43.7803 27.7315 43.9408C28.0195 43.0744 28.2815 42.2864 28.5433 41.4983C28.609 41.5174 28.6748 41.5365 28.7404 41.5556C28.6092 42.4074 28.4781 43.2592 28.3366 44.1779C28.8264 44.2263 29.1828 44.2616 29.5355 44.2965C29.8396 43.4395 30.1124 42.6709 30.3851 41.9024C30.47 41.9298 30.555 41.957 30.6398 41.9844C30.4555 42.8104 30.2712 43.6362 30.0756 44.5129C30.4256 44.5877 30.624 44.6301 30.8685 44.6824C31.0125 44.2618 31.1303 43.8631 31.2856 43.4795C31.4371 43.1053 31.627 42.7467 31.8 42.3811C31.8625 42.411 31.9249 42.441 31.9875 42.471C31.8066 43.2338 31.6258 43.9967 31.4275 44.8333C31.8519 44.9541 32.1868 45.0494 32.5516 45.1533C32.8301 44.2213 33.0788 43.3892 33.3276 42.5571C33.3493 43.2846 33.1704 43.9627 33.0259 44.6479C32.9062 45.2153 33.0723 45.5569 33.7096 45.4367C33.9246 44.8899 34.1225 44.3864 34.3203 43.8829C34.3832 43.9072 34.446 43.9314 34.5088 43.9557C34.4064 44.4736 34.304 44.9914 34.2064 45.4856C35.8194 46.2588 45.9158 46.3923 48.0419 46.1511ZM16.3899 31.1067C16.4703 32.1132 16.5037 32.992 16.6305 33.8573C16.6726 34.1438 16.8926 34.4997 17.1375 34.6457C18.7626 35.6152 20.4023 36.5961 22.3133 36.8759C23.3371 37.0259 24.2616 37.3375 25.1336 37.8855C26.3188 38.6304 27.5746 39.2176 29.0077 39.2825C30.1657 39.335 31.2467 39.6715 32.2663 40.1901C33.6083 40.8727 35.0733 40.7692 36.7302 41.0814C36.0985 39.7653 36.7346 38.3792 35.73 37.3115C35.8083 36.8692 36.3512 36.362 35.5625 35.847C35.3686 36.1185 35.1653 36.3683 35.0017 36.6418C34.8079 36.9661 34.6743 37.3278 34.4696 37.6442C33.265 39.5058 31.056 39.5451 29.7735 37.7308C29.2512 36.9921 28.9804 36.1689 28.9287 35.2588C28.8834 34.4619 28.8341 33.6556 28.6638 32.8804C28.5973 32.5774 28.2351 32.2559 27.9298 32.1271C27.7952 32.0703 27.3878 32.4264 27.2413 32.6754C26.803 33.4207 26.2772 34.0489 25.479 34.4216C23.9795 35.1217 22.7177 34.7326 21.9936 33.2645C21.6613 32.5908 21.4762 31.8456 21.2083 31.1389C21.037 30.687 20.8367 30.2461 20.5575 29.5814C19.4331 31.104 18.2221 31.9673 16.3899 31.1067ZM54.8906 26.5592C54.2964 28.0314 53.8025 29.6098 53.0401 31.0457C52.257 32.5209 51.1836 33.8394 50.2991 35.2649C50.0497 35.667 49.9078 36.2043 49.9102 36.6787C49.9143 37.4816 49.8128 38.1651 49.1215 38.6912C48.9323 38.8352 48.8088 39.176 48.8045 39.429C48.7958 39.9236 48.8924 40.42 48.9577 41.0299C50.138 40.0756 50.9413 38.9608 51.539 37.7102C53.2408 34.149 55.0729 30.621 54.8906 26.5592ZM53.8472 33.9558C53.7707 34.0537 53.6614 34.1402 53.6226 34.2513C52.6949 36.9055 51.3516 39.3062 49.3812 41.3397C49.161 41.5669 48.9512 41.919 48.9452 42.2173C48.9263 43.1599 49.0064 44.1045 49.0483 45.0485C49.1366 45.067 49.225 45.0856 49.3134 45.1041C51.5852 41.7244 53.236 38.076 53.8472 33.9558ZM48.1225 41.7856C48.4316 40.8302 48.5314 40.0284 48.215 39.2932C47.5183 39.1723 46.8475 39.1918 46.3196 38.9267C45.7663 38.6488 45.3503 38.0977 44.6871 37.4963C44.4346 38.9302 44.216 40.1717 43.9653 41.5951C45.4128 41.6615 46.7275 41.7217 48.1225 41.7856ZM16.7495 34.9429C16.9675 36.5507 17.3209 37.8619 18.2182 39.2046C18.5268 38.0482 18.7696 37.1379 19.0156 36.2161C18.2786 35.8021 17.608 35.4253 16.7495 34.9429Z" fill="#77275A"/>
<path d="M47.5111 34.0035C47.6314 33.5698 47.6408 33.3959 47.7213 33.2664C49.5287 30.3597 50.5938 27.1074 51.9929 24.0132C53.5618 20.5432 53.9729 16.8328 53.755 13.0498C53.729 12.5959 53.6244 12.1465 53.7536 11.6299C53.9123 12.2136 54.1219 12.7886 54.2214 13.3821C54.8253 16.9895 54.4741 20.5208 53.0731 23.8896C51.929 26.6406 50.6185 29.3232 49.3492 32.0207C48.9976 32.7678 48.5583 33.4864 47.5111 34.0035Z" fill="#77275A"/>
<path d="M24.9998 16.9509C24.7591 17.433 24.5839 18.0711 24.1858 18.5046C23.7487 18.9806 23.1415 19.343 22.546 19.6217C21.355 20.179 20.929 20.0672 20.0893 19.1894C19.4143 18.4838 19.1406 17.3341 19.6025 16.5264C20.2674 15.3636 21.0133 14.2437 21.7859 13.1486C21.9188 12.9602 22.3532 12.965 22.6542 12.9264C22.7494 12.9141 22.8723 13.0409 22.9682 13.1212C24.1222 14.0855 24.6335 15.3865 24.9998 16.9509ZM22.5268 13.7725C21.9165 14.717 21.2917 15.6562 20.6998 16.6155C20.5063 16.929 20.3209 17.2836 20.2667 17.6399C20.1362 18.4983 20.9742 19.4439 21.7269 19.2673C22.7333 19.0311 23.6015 18.5747 23.9519 17.4666C24.302 16.3594 23.7044 14.759 22.5268 13.7725Z" fill="#77275A"/>
<path d="M42.9274 31.3334C42.3034 31.3596 41.5131 31.3801 40.8725 30.734C40.143 29.9982 39.9435 29.2536 40.3824 28.3296C40.8329 27.381 41.3583 26.4683 41.8207 25.525C42.0803 24.9954 42.4539 24.8965 42.9578 25.1069C43.346 25.269 43.7352 25.4306 44.1135 25.6141C45.5075 26.2903 46.0352 27.2204 45.9105 28.7558C45.7585 30.6288 44.9892 31.3367 42.9274 31.3334ZM42.7836 25.7694C42.2266 26.7763 41.6938 27.6668 41.2322 28.593C40.7158 29.6292 41.4035 30.6393 42.558 30.6049C42.9336 30.5938 43.3119 30.6102 43.6841 30.5695C43.9209 30.5437 44.1975 30.4963 44.3726 30.355C45.4551 29.4815 45.3449 27.2873 44.1707 26.4898C43.7364 26.1948 43.2342 25.9996 42.7836 25.7694Z" fill="#77275A"/>
<path d="M23.7979 20.6633C25.9895 21.7512 26.8411 23.5345 26.2217 25.453C25.8682 26.5478 25.0883 27.0917 23.999 27.2098C23.6891 27.2433 23.2564 27.1907 23.0567 26.9962C22.431 26.3867 21.829 25.7309 21.3475 25.0068C21.1737 24.7454 21.3605 24.2393 21.399 23.8463C21.406 23.7745 21.4838 23.7023 21.5423 23.6437C21.9873 23.1982 22.4893 22.7969 22.8678 22.3012C23.2344 21.8209 23.4754 21.2448 23.7979 20.6633ZM24.2543 21.8589C23.7712 22.3703 23.3186 22.9144 22.7999 23.3856C21.5856 24.4887 21.5753 24.85 22.829 25.9422C22.9553 26.0523 23.0958 26.1461 23.2305 26.2463C24.0511 26.8558 24.6628 26.7036 25.1259 25.7752C25.797 24.43 25.4606 22.9251 24.2543 21.8589Z" fill="#77275A"/>
<path d="M48.6564 7.39058C50.5268 7.36391 51.8324 8.55085 52.0077 10.4865C52.0378 10.8185 52.0352 11.1578 52.007 11.4902C51.886 12.9189 50.9527 13.8841 49.7314 13.8639C48.5783 13.8447 47.4332 12.6045 47.4481 11.2996C47.4537 10.8138 47.6192 10.3191 47.7717 9.84793C48.0264 9.06153 48.3292 8.29062 48.6564 7.39058ZM49.2422 8.04459C49.1347 8.4471 49.0661 8.81248 48.9378 9.15549C48.7912 9.54741 48.5906 9.91895 48.4149 10.3C48.0704 11.0469 48.1073 11.7753 48.5742 12.4526C49.0964 13.2101 50.0465 13.3483 50.633 12.7126C51.3542 11.9308 51.4126 10.9465 51.1509 9.98625C50.8937 9.04243 50.4244 8.20667 49.2422 8.04459Z" fill="#77275A"/>
<path d="M37.6341 11.6033C37.9149 11.8414 38.1916 12.0925 38.4851 12.3221C39.9298 13.453 40.3375 15.2954 39.5161 16.9241C39.1033 17.7429 38.3908 18.081 37.552 18.022C36.7334 17.9643 35.8387 17.92 35.4046 16.9846C34.9994 16.1116 35.0008 15.3416 35.656 14.5296C36.3752 13.6383 36.9499 12.6302 37.6341 11.6033ZM37.8566 12.6993C37.2875 13.5271 36.7575 14.2603 36.2719 15.0219C36.058 15.3574 35.7724 15.7663 35.8065 16.1136C35.8629 16.6881 36.3218 17.0908 36.925 17.1425C37.5335 17.1947 38.1888 17.3496 38.6352 16.6742C39.5026 15.3617 39.1248 13.5637 37.8566 12.6993Z" fill="#77275A"/>
<path d="M35.0814 28.1972C35.0626 28.319 35.0421 28.6577 34.9556 28.9786C34.4611 30.8136 33.8334 31.1168 32.037 30.4549C31.4121 30.2246 30.7281 30.1317 30.3504 29.4729C29.879 28.6504 29.7509 27.816 30.2533 26.9695C30.574 26.4292 30.9264 25.9065 31.2853 25.3901C31.7938 24.6581 31.8792 24.625 32.7243 25.0495C33.2436 25.3103 33.7681 25.5993 34.2064 25.9739C34.8641 26.5359 35.0655 27.1193 35.0814 28.1972ZM32.2921 25.5554C31.9493 26.0336 31.6596 26.4403 31.3673 26.8452C30.1356 28.5512 30.6734 29.7733 32.7729 30.0234C33.0141 30.0521 33.2615 30.0272 33.4712 30.0272C34.8761 27.6918 34.5983 26.6111 32.2921 25.5554Z" fill="#77275A"/>
<path d="M49.5613 16.5457C49.8744 16.7542 50.1065 16.9319 50.3591 17.0731C51.4989 17.7106 51.8429 18.7135 51.706 19.9466C51.5631 21.2331 50.862 22.1261 49.7047 22.6319C49.0982 22.897 48.4566 22.8466 47.9621 22.324C47.2838 21.6069 46.6755 20.8401 47.0214 19.7563C47.1207 19.4453 47.3011 19.1403 47.5113 18.8884C48.1503 18.1232 48.822 17.3853 49.5613 16.5457ZM49.7996 17.4701C49.1679 18.1892 48.4991 18.8847 47.9095 19.6419C47.4324 20.2548 47.602 21.0043 48.2106 21.6847C48.6119 22.1335 49.0549 22.2051 49.5642 21.943C51.2941 21.0531 51.4335 18.6353 49.7996 17.4701Z" fill="#77275A"/>
<path d="M44.9346 9.02198C44.9161 9.16181 44.9095 9.41878 44.8454 9.66074C44.6032 10.5767 44.3042 11.4558 43.225 11.7185C42.2175 11.9637 41.4958 11.4549 40.9195 10.7509C40.2539 9.93808 40.1068 8.97249 40.6134 8.03333C40.9695 7.37314 41.4487 6.76966 41.9394 6.19797C42.0838 6.02984 42.4754 5.95963 42.7191 6.01028C43.9185 6.26003 44.9482 7.64199 44.9346 9.02198ZM42.5686 6.77747C42.2129 7.1794 41.9043 7.52102 41.6035 7.86962C40.9346 8.64508 40.9856 9.49097 41.4129 10.3411C41.8315 11.1739 43.0587 11.2771 43.6261 10.5499C44.6588 9.22667 44.2318 7.58808 42.5686 6.77747Z" fill="#77275A"/>
<path d="M31.5343 14.2817C31.516 15.3691 30.7253 16.2259 29.5331 16.3424C28.6128 16.4323 27.3828 15.5493 27.2388 14.5785C27.178 14.1685 27.3333 13.6809 27.523 13.2934C27.679 12.9746 27.9916 12.6843 28.305 12.5018C28.8025 12.2118 29.112 11.2116 29.8098 11.7241C30.6117 12.3129 31.5841 12.9234 31.5343 14.2817ZM29.6897 12.3194C29.141 12.834 28.675 13.199 28.308 13.6454C28.1245 13.8687 27.9557 14.3505 28.0702 14.5237C28.3538 14.9524 28.755 15.4547 29.2035 15.5749C29.5591 15.6704 30.1556 15.3417 30.4641 15.0249C30.8923 14.5855 30.9386 13.9494 30.5814 13.3981C30.3363 13.0201 30.0065 12.6969 29.6897 12.3194Z" fill="#77275A"/>
<path d="M17.3581 26.4275C17.17 27.2054 16.9819 27.9833 16.7938 28.7612C16.4838 27.863 16.9061 27.1417 17.3581 26.4275Z" fill="#77275A"/>
</g>
<g filter="url(#filter0_d_300_137)">
<path d="M74.3344 42.52C73.4177 42.52 72.721 42.3183 72.2444 41.915C71.8044 41.5117 71.5844 40.9617 71.5844 40.265C71.5844 39.605 71.786 38.89 72.1894 38.12C72.5927 37.35 73.161 36.635 73.8944 35.975C74.1144 35.7917 74.2977 35.6817 74.4444 35.645C74.5544 35.645 74.646 35.6817 74.7194 35.755C74.756 35.7917 74.7744 35.865 74.7744 35.975C74.7744 36.2317 74.6094 36.525 74.2794 36.855C73.2527 37.9183 72.7394 38.8167 72.7394 39.55C72.7394 39.9533 72.9227 40.32 73.2894 40.65C73.656 40.98 74.0777 41.1267 74.5544 41.09C76.3877 41.0167 78.276 40.6133 80.2194 39.88C82.1627 39.1467 83.9777 38.1383 85.6644 36.855C87.351 35.535 88.7444 34.0317 89.8444 32.345C90.651 31.1717 91.0544 30.145 91.0544 29.265C91.0544 28.1283 90.321 27.56 88.8544 27.56C88.5977 27.56 88.3044 27.5967 87.9744 27.67C87.6444 27.7067 87.2777 27.7617 86.8744 27.835L84.1244 28.44C81.8877 28.9167 79.9077 29.3383 78.1844 29.705C76.461 30.035 74.921 30.2 73.5644 30.2C71.9877 30.2 70.7594 29.9617 69.8794 29.485C69.036 28.9717 68.6144 28.11 68.6144 26.9C68.6144 26.35 68.7244 25.69 68.9444 24.92C69.6777 22.5 71.6394 19.9333 74.8294 17.22C76.9927 15.3867 79.4127 13.755 82.0894 12.325C84.766 10.8583 87.461 9.70333 90.1744 8.86C92.9244 7.98 95.491 7.54 97.8744 7.54C99.7077 7.54 101.156 7.94333 102.219 8.75C103.319 9.55667 103.869 10.6567 103.869 12.05C103.869 13.3333 103.411 14.7083 102.494 16.175C102.238 16.5417 102.018 16.725 101.834 16.725C101.761 16.725 101.688 16.67 101.614 16.56C101.541 16.4133 101.504 16.2667 101.504 16.12C101.504 16.0833 101.504 16.0283 101.504 15.955C101.541 15.845 101.578 15.7167 101.614 15.57C101.908 14.69 102.054 13.8467 102.054 13.04C102.054 11.7933 101.614 10.8583 100.734 10.235C99.891 9.61167 98.6627 9.37333 97.0494 9.52C94.226 9.81333 90.9994 10.7117 87.3694 12.215C84.9127 13.2417 82.5844 14.4517 80.3844 15.845C78.221 17.2383 76.351 18.7233 74.7744 20.3C73.2344 21.84 72.171 23.3983 71.5844 24.975C71.4377 25.2683 71.3644 25.6167 71.3644 26.02C71.3644 27.4867 72.8127 28.22 75.7094 28.22C77.1027 28.22 78.6244 28.0733 80.2744 27.78C81.961 27.4867 83.9044 27.12 86.1044 26.68L88.0294 26.295C88.6894 26.185 89.331 26.13 89.9544 26.13C91.1277 26.13 92.0627 26.3683 92.7594 26.845C93.456 27.3217 93.8044 27.9817 93.8044 28.825C93.8044 29.595 93.4744 30.5117 92.8144 31.575C92.191 32.565 91.4577 33.5183 90.6144 34.435C89.771 35.315 88.836 36.1767 87.8094 37.02C85.7194 38.7067 83.4827 40.045 81.0994 41.035C78.716 42.025 76.461 42.52 74.3344 42.52ZM106.375 40.43C105.605 40.32 105.074 40.045 104.78 39.605C104.524 39.2017 104.395 38.6333 104.395 37.9C104.395 37.7167 104.414 37.4233 104.45 37.02C104.524 36.6167 104.597 36.1217 104.67 35.535V35.095C104.67 34.5817 104.579 34.2883 104.395 34.215C104.359 34.1783 104.267 34.16 104.12 34.16C103.864 34.16 103.387 34.3983 102.69 34.875C102.654 34.9117 102.452 35.095 102.085 35.425C101.719 35.7183 101.187 36.1583 100.49 36.745C98.4736 38.5417 97.0986 39.3483 96.3653 39.165C95.5953 38.9817 95.2103 38.4683 95.2103 37.625C95.2103 36.8183 95.5036 35.8467 96.0903 34.71C96.567 33.6833 97.1536 32.6933 97.8503 31.74C98.547 30.75 99.097 30.1083 99.5003 29.815C99.7936 29.6317 100.032 29.54 100.215 29.54C100.399 29.54 100.564 29.6133 100.71 29.76C100.784 29.8333 100.82 29.9433 100.82 30.09C100.82 30.2367 100.729 30.4017 100.545 30.585C100.179 30.9517 99.8303 31.52 99.5003 32.29C99.1703 33.0233 99.0053 33.6833 99.0053 34.27C99.0053 34.3433 99.0053 34.435 99.0053 34.545C99.042 34.655 99.0786 34.7833 99.1153 34.93C99.2986 35.04 99.5003 35.095 99.7203 35.095C100.16 35.095 100.765 34.875 101.535 34.435C101.829 34.2517 102.232 33.995 102.745 33.665C103.259 33.2983 103.882 32.84 104.615 32.29C104.909 32.07 105.239 31.96 105.605 31.96C106.009 31.96 106.339 32.1067 106.595 32.4C106.889 32.6567 107.035 33.0233 107.035 33.5C107.035 33.5733 107.017 33.6833 106.98 33.83C106.98 33.94 106.962 34.0867 106.925 34.27C106.852 34.5633 106.779 34.8383 106.705 35.095C106.632 35.3517 106.577 35.6083 106.54 35.865C106.504 36.0117 106.485 36.2133 106.485 36.47C106.485 36.69 106.485 36.9467 106.485 37.24C106.485 38.0467 106.907 38.45 107.75 38.45C108.117 38.45 108.484 38.395 108.85 38.285C109.254 38.1383 109.547 37.9733 109.73 37.79C111.49 36.25 113.214 34.2517 114.9 31.795L114.845 31.135C114.809 30.7683 114.882 30.42 115.065 30.09C115.249 29.7233 115.487 29.3567 115.78 28.99C115.89 28.8433 116.037 28.77 116.22 28.77C116.404 28.77 116.569 28.8617 116.715 29.045C116.899 29.1917 116.99 29.3933 116.99 29.65C116.99 29.8333 116.935 30.035 116.825 30.255C116.605 30.6583 116.257 31.245 115.78 32.015C115.304 32.7483 114.754 33.555 114.13 34.435C113.507 35.315 112.884 36.14 112.26 36.91C111.637 37.68 111.069 38.285 110.555 38.725V38.78C109.932 39.33 109.217 39.7517 108.41 40.045C107.604 40.375 106.925 40.5033 106.375 40.43ZM119.34 39.605C118.57 39.605 117.892 39.4033 117.305 39C116.352 38.2667 115.875 37.1667 115.875 35.7C115.875 34.2333 116.388 32.675 117.415 31.025C118.442 29.375 120 27.8533 122.09 26.46C122.457 26.2033 122.952 26.075 123.575 26.075C124.382 26.075 125.097 26.295 125.72 26.735C126.38 27.175 126.637 27.7433 126.49 28.44C126.233 29.5767 125.665 30.585 124.785 31.465C123.942 32.345 122.933 33.1333 121.76 33.83C120.623 34.49 119.45 35.1317 118.24 35.755C118.203 35.865 118.167 35.975 118.13 36.085C118.13 36.195 118.13 36.305 118.13 36.415C118.13 36.9283 118.295 37.3867 118.625 37.79C118.992 38.1567 119.487 38.34 120.11 38.34C120.587 38.34 120.99 38.2667 121.32 38.12C121.907 37.9 122.383 37.6983 122.75 37.515C123.153 37.3317 123.612 37.0567 124.125 36.69C124.638 36.3233 125.335 35.7733 126.215 35.04C126.618 34.7467 126.857 34.6 126.93 34.6C127.15 34.6 127.223 34.765 127.15 35.095C126.783 35.6817 126.142 36.3233 125.225 37.02C124.345 37.7167 123.355 38.3217 122.255 38.835C121.192 39.3483 120.22 39.605 119.34 39.605ZM118.57 34.27C118.863 34.27 119.468 33.9767 120.385 33.39C121.302 32.8033 122.163 32.1617 122.97 31.465C124.363 30.1817 125.06 29.1917 125.06 28.495C125.06 28.3117 125.005 28.1467 124.895 28C124.785 27.8167 124.62 27.725 124.4 27.725C123.703 27.725 122.53 28.55 120.88 30.2C119.743 31.3 118.973 32.6567 118.57 34.27ZM130.243 39.605C129.473 39.605 128.795 39.4033 128.208 39C127.255 38.2667 126.778 37.1667 126.778 35.7C126.778 34.2333 127.291 32.675 128.318 31.025C129.345 29.375 130.903 27.8533 132.993 26.46C133.36 26.2033 133.855 26.075 134.478 26.075C135.285 26.075 136 26.295 136.623 26.735C137.283 27.175 137.54 27.7433 137.393 28.44C137.136 29.5767 136.568 30.585 135.688 31.465C134.845 32.345 133.836 33.1333 132.663 33.83C131.526 34.49 130.353 35.1317 129.143 35.755C129.106 35.865 129.07 35.975 129.033 36.085C129.033 36.195 129.033 36.305 129.033 36.415C129.033 36.9283 129.198 37.3867 129.528 37.79C129.895 38.1567 130.39 38.34 131.013 38.34C131.49 38.34 131.893 38.2667 132.223 38.12C132.81 37.9 133.286 37.6983 133.653 37.515C134.056 37.3317 134.515 37.0567 135.028 36.69C135.541 36.3233 136.238 35.7733 137.118 35.04C137.521 34.7467 137.76 34.6 137.833 34.6C138.053 34.6 138.126 34.765 138.053 35.095C137.686 35.6817 137.045 36.3233 136.128 37.02C135.248 37.7167 134.258 38.3217 133.158 38.835C132.095 39.3483 131.123 39.605 130.243 39.605ZM129.473 34.27C129.766 34.27 130.371 33.9767 131.288 33.39C132.205 32.8033 133.066 32.1617 133.873 31.465C135.266 30.1817 135.963 29.1917 135.963 28.495C135.963 28.3117 135.908 28.1467 135.798 28C135.688 27.8167 135.523 27.725 135.303 27.725C134.606 27.725 133.433 28.55 131.783 30.2C130.646 31.3 129.876 32.6567 129.473 34.27ZM138.561 44.115C138.378 44.115 138.286 43.95 138.286 43.62C138.286 43.5467 138.286 43.4367 138.286 43.29C138.323 43.18 138.36 43.0517 138.396 42.905L140.761 36.965L143.566 30.035C143.126 29.9983 142.485 30.0167 141.641 30.09C140.798 30.1267 140.083 30.2 139.496 30.31C139.276 30.3467 139.093 30.3833 138.946 30.42C138.836 30.42 138.745 30.42 138.671 30.42C138.378 30.42 138.176 30.2917 138.066 30.035C138.103 29.815 138.305 29.6133 138.671 29.43C138.855 29.3567 139.075 29.3017 139.331 29.265C139.588 29.1917 139.9 29.1183 140.266 29.045C140.67 28.9717 141.018 28.9167 141.311 28.88C141.641 28.8433 141.88 28.8067 142.026 28.77C142.21 28.7333 142.393 28.6967 142.576 28.66C142.76 28.6233 142.98 28.5867 143.236 28.55C143.456 28.5133 143.695 28.4767 143.951 28.44C144.208 28.4033 144.483 28.3483 144.776 28.275C145.07 27.8717 145.51 27.1567 146.096 26.13C146.683 25.1033 147.435 23.7467 148.351 22.06C149.085 20.7033 149.671 19.64 150.111 18.87C150.588 18.0633 150.918 17.5317 151.101 17.275C151.431 16.835 151.816 16.615 152.256 16.615C152.476 16.615 152.586 16.7067 152.586 16.89C152.586 16.9267 152.495 17.165 152.311 17.605C152.091 17.9717 151.725 18.65 151.211 19.64C150.698 20.63 150.148 21.7117 149.561 22.885C148.975 24.0583 148.443 25.1583 147.966 26.185C147.49 27.2117 147.16 27.9633 146.976 28.44C147.16 28.4033 147.361 28.385 147.581 28.385C147.838 28.385 148.15 28.385 148.516 28.385C148.92 28.385 149.286 28.4033 149.616 28.44C149.983 28.44 150.295 28.4583 150.551 28.495C151.065 28.605 151.321 28.7517 151.321 28.935C151.321 29.0083 151.156 29.1367 150.826 29.32C150.643 29.3933 150.295 29.4667 149.781 29.54C149.268 29.6133 148.59 29.6867 147.746 29.76C147.526 29.76 147.288 29.7783 147.031 29.815C146.775 29.815 146.5 29.8333 146.206 29.87C145.106 31.6667 143.603 34.655 141.696 38.835C141 40.2283 140.468 41.31 140.101 42.08C139.735 42.85 139.515 43.3083 139.441 43.455C139.111 43.895 138.818 44.115 138.561 44.115ZM169.414 42.795C168.534 42.795 168.094 42.4467 168.094 41.75C168.094 41.0533 168.552 40.1917 169.469 39.165C170.312 38.2483 171.687 37.2767 173.594 36.25C175.501 35.1867 177.682 34.2517 180.139 33.445C180.689 33.2617 181.129 33.17 181.459 33.17C181.899 33.17 182.119 33.2617 182.119 33.445C182.119 33.6283 181.899 33.775 181.459 33.885C179.919 34.2883 178.397 34.875 176.894 35.645C175.391 36.3783 174.052 37.1667 172.879 38.01C171.009 39.3667 170.074 40.3017 170.074 40.815C170.074 41.1083 170.367 41.255 170.954 41.255C172.237 41.255 174.217 40.4667 176.894 38.89C178.654 37.8633 180.322 36.7083 181.899 35.425C183.476 34.105 184.741 32.8033 185.694 31.52C186.684 30.2367 187.179 29.0817 187.179 28.055C187.179 26.8817 186.482 25.965 185.089 25.305C183.769 26.0017 182.394 26.68 180.964 27.34C179.534 27.9633 178.177 28.5317 176.894 29.045C175.611 29.5583 174.492 29.9433 173.539 30.2C172.622 30.4567 171.999 30.5483 171.669 30.475C170.569 30.255 170.019 29.8517 170.019 29.265C170.019 28.7517 170.367 28.165 171.064 27.505C171.797 26.845 172.604 26.24 173.484 25.69C174.401 25.14 175.134 24.7733 175.684 24.59C177.774 23.8567 179.772 23.49 181.679 23.49C182.999 23.49 184.227 23.6917 185.364 24.095C186.684 23.435 188.041 22.5 189.434 21.29C190.864 20.08 192.129 18.7783 193.229 17.385C194.329 15.9917 195.044 14.69 195.374 13.48C195.557 12.6733 195.649 12.0867 195.649 11.72C195.649 10.29 195.044 9.245 193.834 8.585C192.661 7.88833 191.066 7.54 189.049 7.54C186.006 7.54 182.449 8.18167 178.379 9.465C175.666 10.3083 173.154 11.3167 170.844 12.49C168.571 13.6267 166.737 14.8 165.344 16.01C163.951 17.1833 163.199 18.3017 163.089 19.365C163.052 19.695 162.924 19.9517 162.704 20.135C162.484 20.3183 162.246 20.41 161.989 20.41C161.549 20.41 161.329 20.135 161.329 19.585C161.329 17.715 162.961 15.735 166.224 13.645C167.874 12.545 169.707 11.5367 171.724 10.62C173.777 9.66666 175.904 8.84166 178.104 8.145C180.304 7.44833 182.449 6.91666 184.539 6.55C186.666 6.14667 188.609 5.945 190.369 5.945C192.752 5.945 194.622 6.33 195.979 7.1C197.372 7.87 198.069 9.08 198.069 10.73C198.069 11.3533 197.959 12.05 197.739 12.82C197.336 14.3233 196.547 15.8083 195.374 17.275C194.201 18.7417 192.826 20.0983 191.249 21.345C189.672 22.555 188.041 23.6 186.354 24.48C188.407 25.8 189.434 27.285 189.434 28.935C189.434 30.9517 188.151 33.0233 185.584 35.15C184.301 36.2133 182.889 37.2033 181.349 38.12C179.809 39.0367 178.269 39.8433 176.729 40.54C175.189 41.2367 173.777 41.7867 172.494 42.19C171.211 42.5933 170.184 42.795 169.414 42.795ZM166.224 41.035C165.271 40.8517 164.592 40.5217 164.189 40.045C163.822 39.5683 163.639 38.8717 163.639 37.955C163.639 37.7717 163.657 37.4967 163.694 37.13C163.731 36.7633 163.786 36.2867 163.859 35.7C164.042 34.4167 164.519 32.9133 165.289 31.19C166.096 29.4667 167.067 27.6517 168.204 25.745C169.377 23.8383 170.624 21.9683 171.944 20.135C173.301 18.3017 174.639 16.6333 175.959 15.13L175.629 15.185C175.446 15.185 175.354 15.0933 175.354 14.91C175.354 14.7633 175.482 14.4517 175.739 13.975C176.179 13.1683 176.692 12.5633 177.279 12.16C177.572 11.94 177.792 11.775 177.939 11.665C178.086 11.555 178.177 11.4817 178.214 11.445C178.397 11.2617 178.691 11.17 179.094 11.17C179.571 11.17 180.011 11.2983 180.414 11.555C180.854 11.8117 181.074 12.0683 181.074 12.325C181.074 12.435 180.982 12.5817 180.799 12.765C179.186 14.195 177.279 16.34 175.079 19.2C173.576 21.1433 172.164 23.105 170.844 25.085C169.524 27.065 168.424 28.88 167.544 30.53C166.701 32.18 166.206 33.5183 166.059 34.545L165.784 35.645C165.747 35.7183 165.711 35.8467 165.674 36.03C165.674 36.2133 165.637 36.4517 165.564 36.745C165.417 37.2217 165.344 37.6983 165.344 38.175C165.344 38.9817 165.656 39.4767 166.279 39.66C166.756 39.7333 166.994 40.0083 166.994 40.485C166.994 40.925 166.737 41.1083 166.224 41.035ZM173.374 28.935C173.521 29.0083 173.667 29.045 173.814 29.045C174.401 29.045 175.482 28.7333 177.059 28.11C178.086 27.7067 179.167 27.2483 180.304 26.735C181.477 26.185 182.687 25.58 183.934 24.92C183.641 24.8467 183.292 24.7917 182.889 24.755C182.522 24.7183 182.137 24.7 181.734 24.7C180.231 24.7 178.727 25.03 177.224 25.69H177.169C176.582 25.9467 176.032 26.2033 175.519 26.46C175.042 26.7167 174.602 26.9367 174.199 27.12C173.429 27.4867 173.044 27.9083 173.044 28.385C173.044 28.5683 173.154 28.7517 173.374 28.935ZM195.884 26.955C195.407 26.955 195.169 26.845 195.169 26.625C195.169 26.4417 195.297 26.185 195.554 25.855C195.847 25.4883 196.177 25.1767 196.544 24.92C197.35 24.4067 197.974 23.9667 198.414 23.6C198.89 23.2333 199.459 22.61 200.119 21.73C200.155 21.8033 200.174 21.95 200.174 22.17C200.174 22.6467 199.972 23.2333 199.569 23.93C199.202 24.59 198.78 25.195 198.304 25.745C197.827 26.295 197.405 26.6433 197.039 26.79C196.709 26.9 196.324 26.955 195.884 26.955ZM190.989 40.43C190.695 40.43 190.42 40.32 190.164 40.1C189.907 39.88 189.779 39.5867 189.779 39.22C189.779 38.45 190.31 37.0383 191.374 34.985L191.979 33.775C192.052 33.7017 192.144 33.5183 192.254 33.225C192.4 32.9317 192.602 32.5467 192.859 32.07C193.115 31.5567 193.317 31.0983 193.464 30.695C193.61 30.2917 193.72 29.9067 193.794 29.54C193.794 29.5033 193.867 29.43 194.014 29.32C194.16 29.21 194.307 29.1183 194.454 29.045L194.784 28.99C195.077 28.99 195.315 29.045 195.499 29.155C195.719 29.265 195.792 29.4117 195.719 29.595C195.462 30.145 195.242 30.6217 195.059 31.025C194.875 31.4283 194.729 31.7767 194.619 32.07H194.564C194.16 32.9867 193.812 33.8667 193.519 34.71C193.262 35.5167 193.152 36.2867 193.189 37.02L193.244 38.505C193.207 38.8717 193.079 39.1833 192.859 39.44C192.712 39.55 192.51 39.6783 192.254 39.825C191.997 40.0083 191.667 40.1917 191.264 40.375C191.227 40.4117 191.135 40.43 190.989 40.43ZM196.784 44.115C196.601 44.115 196.509 43.95 196.509 43.62C196.509 43.5467 196.509 43.4367 196.509 43.29C196.546 43.18 196.582 43.0517 196.619 42.905L198.984 36.965L201.789 30.035C201.349 29.9983 200.707 30.0167 199.864 30.09C199.021 30.1267 198.306 30.2 197.719 30.31C197.499 30.3467 197.316 30.3833 197.169 30.42C197.059 30.42 196.967 30.42 196.894 30.42C196.601 30.42 196.399 30.2917 196.289 30.035C196.326 29.815 196.527 29.6133 196.894 29.43C197.077 29.3567 197.297 29.3017 197.554 29.265C197.811 29.1917 198.122 29.1183 198.489 29.045C198.892 28.9717 199.241 28.9167 199.534 28.88C199.864 28.8433 200.102 28.8067 200.249 28.77C200.432 28.7333 200.616 28.6967 200.799 28.66C200.982 28.6233 201.202 28.5867 201.459 28.55C201.679 28.5133 201.917 28.4767 202.174 28.44C202.431 28.4033 202.706 28.3483 202.999 28.275C203.292 27.8717 203.732 27.1567 204.319 26.13C204.906 25.1033 205.657 23.7467 206.574 22.06C207.307 20.7033 207.894 19.64 208.334 18.87C208.811 18.0633 209.141 17.5317 209.324 17.275C209.654 16.835 210.039 16.615 210.479 16.615C210.699 16.615 210.809 16.7067 210.809 16.89C210.809 16.9267 210.717 17.165 210.534 17.605C210.314 17.9717 209.947 18.65 209.434 19.64C208.921 20.63 208.371 21.7117 207.784 22.885C207.197 24.0583 206.666 25.1583 206.189 26.185C205.712 27.2117 205.382 27.9633 205.199 28.44C205.382 28.4033 205.584 28.385 205.804 28.385C206.061 28.385 206.372 28.385 206.739 28.385C207.142 28.385 207.509 28.4033 207.839 28.44C208.206 28.44 208.517 28.4583 208.774 28.495C209.287 28.605 209.544 28.7517 209.544 28.935C209.544 29.0083 209.379 29.1367 209.049 29.32C208.866 29.3933 208.517 29.4667 208.004 29.54C207.491 29.6133 206.812 29.6867 205.969 29.76C205.749 29.76 205.511 29.7783 205.254 29.815C204.997 29.815 204.722 29.8333 204.429 29.87C203.329 31.6667 201.826 34.655 199.919 38.835C199.222 40.2283 198.691 41.31 198.324 42.08C197.957 42.85 197.737 43.3083 197.664 43.455C197.334 43.895 197.041 44.115 196.784 44.115ZM210.487 39.605C209.717 39.605 209.039 39.4033 208.452 39C207.499 38.2667 207.022 37.1667 207.022 35.7C207.022 34.2333 207.536 32.675 208.562 31.025C209.589 29.375 211.147 27.8533 213.237 26.46C213.604 26.2033 214.099 26.075 214.722 26.075C215.529 26.075 216.244 26.295 216.867 26.735C217.527 27.175 217.784 27.7433 217.637 28.44C217.381 29.5767 216.812 30.585 215.932 31.465C215.089 32.345 214.081 33.1333 212.907 33.83C211.771 34.49 210.597 35.1317 209.387 35.755C209.351 35.865 209.314 35.975 209.277 36.085C209.277 36.195 209.277 36.305 209.277 36.415C209.277 36.9283 209.442 37.3867 209.772 37.79C210.139 38.1567 210.634 38.34 211.257 38.34C211.734 38.34 212.137 38.2667 212.467 38.12C213.054 37.9 213.531 37.6983 213.897 37.515C214.301 37.3317 214.759 37.0567 215.272 36.69C215.786 36.3233 216.482 35.7733 217.362 35.04C217.766 34.7467 218.004 34.6 218.077 34.6C218.297 34.6 218.371 34.765 218.297 35.095C217.931 35.6817 217.289 36.3233 216.372 37.02C215.492 37.7167 214.502 38.3217 213.402 38.835C212.339 39.3483 211.367 39.605 210.487 39.605ZM209.717 34.27C210.011 34.27 210.616 33.9767 211.532 33.39C212.449 32.8033 213.311 32.1617 214.117 31.465C215.511 30.1817 216.207 29.1917 216.207 28.495C216.207 28.3117 216.152 28.1467 216.042 28C215.932 27.8167 215.767 27.725 215.547 27.725C214.851 27.725 213.677 28.55 212.027 30.2C210.891 31.3 210.121 32.6567 209.717 34.27Z" fill="white"/>
</g>
<defs>
<filter id="filter0_d_300_137" x="61.6144" y="2.94507" width="163.793" height="52.1699" filterUnits="userSpaceOnUse" color-interpolation-filters="sRGB">
<feFlood flood-opacity="0" result="BackgroundImageFix"/>
<feColorMatrix in="SourceAlpha" type="matrix" values="0 0 0 0 0 0 0 0 0 0 0 0 0 0 0 0 0 0 127 0" result="hardAlpha"/>
<feOffset dy="4"/>
<feGaussianBlur stdDeviation="3.5"/>
<feComposite in2="hardAlpha" operator="out"/>
<feColorMatrix type="matrix" values="0 0 0 0 0.466667 0 0 0 0 0.152941 0 0 0 0 0.352941 0 0 0 1 0"/>
<feBlend mode="normal" in2="BackgroundImageFix" result="effect1_dropShadow_300_137"/>
<feBlend mode="normal" in="SourceGraphic" in2="effect1_dropShadow_300_137" result="shape"/>
</filter>
<clipPath id="clip0_300_137">
<rect width="45" height="45" fill="white" transform="translate(12.5 2.5)"/>
</clipPath>
</defs>
</svg>
