<svg width="19" height="17" viewBox="0 0 19 17" fill="none" xmlns="http://www.w3.org/2000/svg">
<path d="M9.5 15.6L9.2 15.35C2.75 10.1 1 8.25 1 5.25C1 2.75 3 0.75 5.5 0.75C7.55 0.75 8.7 1.9 9.5 2.8C10.3 1.9 11.45 0.75 13.5 0.75C16 0.75 18 2.75 18 5.25C18 8.25 16.25 10.1 9.8 15.35L9.5 15.6ZM5.5 1.75C3.55 1.75 2 3.3 2 5.25C2 7.8 3.6 9.5 9.5 14.3C15.4 9.5 17 7.8 17 5.25C17 3.3 15.45 1.75 13.5 1.75C11.75 1.75 10.8 2.8 10.05 3.65L9.5 4.3L8.95 3.65C8.2 2.8 7.25 1.75 5.5 1.75Z" fill="white" stroke="#77275A"/>
</svg>
