<svg width="22" height="18" viewBox="0 0 22 18" fill="none" xmlns="http://www.w3.org/2000/svg">
<path d="M11 17.91L10.64 17.61C2.89999 11.31 0.799988 9.08996 0.799988 5.48997C0.799988 2.48997 3.19999 0.0899658 6.19999 0.0899658C8.65999 0.0899658 10.04 1.46997 11 2.54997C11.96 1.46997 13.34 0.0899658 15.8 0.0899658C18.8 0.0899658 21.2 2.48997 21.2 5.48997C21.2 9.08996 19.1 11.31 11.36 17.61L11 17.91ZM6.19999 1.28997C3.85999 1.28997 1.99999 3.14997 1.99999 5.48997C1.99999 8.54996 3.91999 10.59 11 16.35C18.08 10.59 20 8.54996 20 5.48997C20 3.14997 18.14 1.28997 15.8 1.28997C13.7 1.28997 12.56 2.54997 11.66 3.56997L11 4.34997L10.34 3.56997C9.43999 2.54997 8.29999 1.28997 6.19999 1.28997Z" fill="#FF609A"/>
</svg>
