<svg width="17" height="17" viewBox="0 0 17 17" fill="none" xmlns="http://www.w3.org/2000/svg">
<path fill-rule="evenodd" clip-rule="evenodd" d="M13 7.39648C13 10.4341 10.5376 12.8965 7.5 12.8965C4.46243 12.8965 2 10.4341 2 7.39648C2 4.35892 4.46243 1.89648 7.5 1.89648C10.5376 1.89648 13 4.35892 13 7.39648ZM11.8845 12.1951C10.7286 13.2518 9.18957 13.8965 7.5 13.8965C3.91015 13.8965 1 10.9863 1 7.39648C1 3.80663 3.91015 0.896484 7.5 0.896484C11.0899 0.896484 14 3.80663 14 7.39648C14 8.93666 13.4643 10.3517 12.5691 11.4655L16 14.8964L15.2929 15.6035L11.8845 12.1951Z" fill="white"/>
<path d="M11.8845 12.1951L12.238 11.8415L11.9 11.5035L11.5471 11.8261L11.8845 12.1951ZM12.5691 11.4655L12.1794 11.1523L11.8984 11.5019L12.2156 11.8191L12.5691 11.4655ZM16 14.8964L16.3536 15.25L16.7071 14.8964L16.3536 14.5429L16 14.8964ZM15.2929 15.6035L14.9394 15.9571L15.2929 16.3106L15.6465 15.9571L15.2929 15.6035ZM7.5 13.3965C10.8137 13.3965 13.5 10.7102 13.5 7.39648H12.5C12.5 10.1579 10.2614 12.3965 7.5 12.3965V13.3965ZM1.5 7.39648C1.5 10.7102 4.18629 13.3965 7.5 13.3965V12.3965C4.73858 12.3965 2.5 10.1579 2.5 7.39648H1.5ZM7.5 1.39648C4.18629 1.39648 1.5 4.08278 1.5 7.39648H2.5C2.5 4.63506 4.73858 2.39648 7.5 2.39648V1.39648ZM13.5 7.39648C13.5 4.08278 10.8137 1.39648 7.5 1.39648V2.39648C10.2614 2.39648 12.5 4.63506 12.5 7.39648H13.5ZM7.5 14.3965C9.31926 14.3965 10.9774 13.7018 12.2219 12.5641L11.5471 11.8261C10.4798 12.8019 9.05989 13.3965 7.5 13.3965V14.3965ZM0.5 7.39648C0.5 11.2625 3.63401 14.3965 7.5 14.3965V13.3965C4.18629 13.3965 1.5 10.7102 1.5 7.39648H0.5ZM7.5 0.396484C3.63401 0.396484 0.5 3.53049 0.5 7.39648H1.5C1.5 4.08278 4.18629 1.39648 7.5 1.39648V0.396484ZM14.5 7.39648C14.5 3.53049 11.366 0.396484 7.5 0.396484V1.39648C10.8137 1.39648 13.5 4.08278 13.5 7.39648H14.5ZM12.9588 11.7788C13.9228 10.5794 14.5 9.05465 14.5 7.39648H13.5C13.5 8.81867 13.0058 10.1241 12.1794 11.1523L12.9588 11.7788ZM12.2156 11.8191L15.6465 15.25L16.3536 14.5429L12.9227 11.112L12.2156 11.8191ZM15.6465 14.5429L14.9394 15.25L15.6465 15.9571L16.3536 15.25L15.6465 14.5429ZM15.6465 15.25L12.238 11.8415L11.5309 12.5487L14.9394 15.9571L15.6465 15.25Z" fill="#77275A"/>
</svg>
